<svg width="35" height="40" viewBox="0 0 35 40" fill="none" xmlns="http://www.w3.org/2000/svg">
<path d="M31.0211 36.4336C29.9547 36.3003 28.8438 35.5449 27.9996 34.9228C25.9112 33.4121 19.024 27.1469 17.9576 32.9677C16.8467 27.1469 9.8262 33.4121 7.73781 34.9228C6.93801 35.5005 5.7383 36.3003 4.67189 36.4336C3.51661 36.5669 2.0503 35.8115 1.25049 34.0341C1.25049 34.123 1.25049 34.2119 1.25049 34.3007C1.25049 35.456 1.73926 36.5669 2.49463 37.4555C4.49415 39.8105 7.95998 40.477 10.8482 39.6772C12.3589 39.2773 13.7364 38.5219 14.9361 37.5888C15.2916 37.3222 17.9576 34.7451 17.9576 34.3896C17.9576 34.7451 20.4903 37.3222 20.8458 37.5888C22.0899 38.5219 23.2896 39.2773 24.8004 39.6772C27.6886 40.477 31.1544 39.8105 33.1983 37.4555C33.9537 36.5669 34.4425 35.456 34.4425 34.3007C34.4425 34.2119 34.4425 34.123 34.4425 34.0341C33.5983 35.8115 32.1319 36.5224 31.0211 36.4336Z" fill="#3CC754"/>
<path d="M8.84873 19.3265C8.84873 22.3036 8.75986 25.3695 8.89316 28.9687C13.8253 25.7694 22.0455 25.725 27.2887 28.6132V19.8153C37.3752 18.8378 35.5534 4.57454 26.0446 6.35189C23.6452 -1.64618 12.5367 -2.22382 9.29307 5.37435C-0.971128 1.95295 -4.8813 18.66 8.84873 19.3265Z" fill="black"/>
</svg>
