<svg width="37" height="44" viewBox="0 0 37 44" fill="none" xmlns="http://www.w3.org/2000/svg">
<path d="M28.42 23.4539H25.332H3.588H0.5C0.224 23.4539 0 23.6789 0 23.9539C0 24.2289 0.224 24.4539 0.5 24.4539H3.088V38.8269C3.088 41.6179 5.359 43.8879 8.15 43.8879H20.772C23.563 43.8879 25.835 41.6179 25.835 38.8269V24.4539H28.423C28.698 24.4539 28.923 24.2289 28.923 23.9539C28.923 23.6789 28.698 23.4539 28.42 23.4539Z" fill="black"/>
<path d="M24.578 11.7619C24.617 11.7409 24.642 11.7059 24.682 11.6829C24.698 11.6669 24.721 11.6579 24.735 11.6409C25.155 11.3279 25.323 10.7649 25.085 10.2819C24.981 10.0719 24.812 9.8959 24.603 9.7869C24.603 9.7859 24.603 9.7849 24.601 9.7849C21.455 8.1519 17.834 7.6329 14.357 8.2839L13.509 6.5609C13.387 6.3129 13.089 6.2109 12.84 6.3319L6.08501 9.6549C5.83701 9.7779 5.73501 10.0769 5.85701 10.3249L6.70601 12.0479C4.06901 14.4049 2.27101 17.5919 1.64501 21.0789V21.0799V21.0809C1.63201 21.1479 1.63501 21.2159 1.64901 21.2789C1.65201 21.8009 2.00601 22.2699 2.54201 22.3679C2.60701 22.3789 2.67301 22.3849 2.73701 22.3849C2.90501 22.3849 3.07101 22.3469 3.22501 22.2709L24.578 11.7619C24.577 11.7629 24.577 11.7619 24.578 11.7619Z" fill="#3CC754"/>
<path d="M29.2989 1.93282C26.8239 3.91082 25.9979 7.31182 27.2929 10.2038C28.6369 13.2058 27.3069 16.7858 24.3279 18.1838C24.0779 18.3008 23.9709 18.5978 24.0879 18.8478C24.1739 19.0298 24.3539 19.1358 24.5409 19.1358C24.6109 19.1358 24.6859 19.1208 24.7539 19.0878C28.2229 17.4608 29.7719 13.2908 28.2049 9.79482C27.0999 7.31782 27.8049 4.40582 29.9239 2.71282C30.1409 2.53982 30.1739 2.22582 30.0019 2.01082C29.8299 1.79582 29.5179 1.76082 29.2989 1.93282Z" fill="black"/>
<path d="M35.6329 0.108788C33.1559 2.08679 32.3319 5.48879 33.6269 8.37979C34.9709 11.3828 33.6409 14.9618 30.6619 16.3598C30.4119 16.4768 30.3049 16.7738 30.4219 17.0238C30.5079 17.2058 30.6879 17.3118 30.8749 17.3118C30.9449 17.3118 31.0199 17.2968 31.0879 17.2638C34.5569 15.6368 36.1039 11.4678 34.5389 7.97079C33.4319 5.49379 34.1389 2.58179 36.2579 0.888788C36.4749 0.715788 36.5079 0.401788 36.3359 0.186788C36.1639 -0.0282124 35.8519 -0.0622125 35.6329 0.108788Z" fill="black"/>
</svg>
