<svg width="39" height="40" viewBox="0 0 39 40" fill="none" xmlns="http://www.w3.org/2000/svg">
<path d="M34.69 13.0895L36.0639 12.7579L37.0589 13.7054L37.201 12.3315L38.3854 11.6208L37.1062 11.0997L36.822 9.72571L35.9218 10.768L34.5479 10.6259L35.2585 11.8103L34.69 13.0895Z" fill="#3CC754"/>
<path d="M33.8845 21.7596C35.2111 21.7596 36.3008 20.67 36.3008 19.3434C36.3008 17.9694 35.2111 16.8798 33.8845 16.8798C32.558 16.8798 31.4209 17.9694 31.4209 19.3434C31.4209 20.67 32.5106 21.7596 33.8845 21.7596Z" fill="#3CC754"/>
<path d="M28.6257 13.137C28.6257 13.6582 29.0521 14.0846 29.5733 14.0846C30.0944 14.0846 30.5208 13.6582 30.5208 13.137C30.5208 12.6159 30.0944 12.1895 29.5733 12.1895C29.0521 12.1895 28.6257 12.6159 28.6257 13.137Z" fill="#3CC754"/>
<path d="M24.0301 3.99302C24.4091 4.32466 24.8829 4.41942 25.2619 4.46679C25.5461 4.51417 25.8778 4.56155 26.1621 4.56155C26.3042 4.98795 26.3989 5.46172 26.3516 5.98288C26.3042 6.9778 25.9252 8.06749 25.2145 8.96766L26.2094 9.7257C27.0622 8.58864 27.5834 7.26207 27.6308 6.03025C27.6308 5.55648 27.5834 5.03533 27.4412 4.56155C28.91 4.4668 30.3313 3.99302 31.5631 3.28236L30.9472 2.19267C29.7627 2.90334 28.3888 3.28236 27.0148 3.37711C26.778 2.95071 26.4937 2.61907 26.1147 2.28743C25.783 1.95579 25.1671 1.67152 24.5512 1.76628C24.1722 1.81365 23.8879 2.05054 23.6984 2.33481C23.3668 2.85596 23.5089 3.56662 24.0301 3.99302ZM25.2619 3.1876C25.2619 3.1876 25.3093 3.23498 25.2619 3.1876C25.1197 3.1876 24.9302 3.14022 24.8355 3.04547C24.8355 2.99809 24.7881 2.95071 24.7881 2.95071C24.8829 2.95071 25.0724 3.04547 25.2619 3.1876Z" fill="#3CC754"/>
<path d="M14.0335 17.5431C13.0386 17.5431 12.2332 18.3485 12.2332 19.3434C12.2332 20.3384 13.0386 21.1438 14.0335 21.1438C15.0284 21.1438 15.8338 20.3384 15.8338 19.3434C15.7865 18.3485 14.981 17.5431 14.0335 17.5431ZM14.0335 19.8646C13.7492 19.8646 13.465 19.6277 13.465 19.3434C13.465 19.0592 13.7019 18.7749 14.0335 18.7749C14.3178 18.7749 14.5547 19.0118 14.5547 19.3434C14.5547 19.6277 14.3178 19.8646 14.0335 19.8646Z" fill="#3CC754"/>
<path d="M16.5917 11.8104L16.8286 10.5786C15.4546 10.3417 14.3176 9.53625 13.5595 8.35182C12.8015 7.16738 12.5172 5.79343 12.8015 4.46686C13.0384 3.42455 13.6069 2.52438 14.5071 1.90847C15.4073 1.33994 16.4496 1.10306 17.5392 1.33994C18.3447 1.48208 19.0553 1.95585 19.5291 2.66651C20.0029 3.37718 20.145 4.18259 19.9555 4.98801C19.7186 6.26721 18.4394 7.07262 17.2076 6.83574C16.7338 6.74098 16.3548 6.45672 16.1179 6.0777C15.8337 5.69868 15.7389 5.2249 15.8337 4.75112C15.881 4.41948 16.1179 4.13522 16.4022 3.94571C16.6865 3.7562 17.0181 3.70882 17.3497 3.7562L17.5866 2.52438C16.9233 2.38225 16.2601 2.52438 15.6915 2.9034C15.123 3.28242 14.744 3.85095 14.6018 4.51424C14.4597 5.31965 14.6018 6.0777 15.0282 6.78836C15.4546 7.45164 16.1653 7.92542 16.9233 8.06755C18.8658 8.44657 20.7609 7.21476 21.1873 5.2249C21.4242 4.08784 21.1873 2.95078 20.5714 1.95585C19.9555 1.0083 18.9606 0.297638 17.8235 0.108128C16.4496 -0.176137 15.0282 0.108128 13.8438 0.866168C12.6594 1.62421 11.8539 2.85602 11.6171 4.22997C11.2854 5.93556 11.6171 7.64115 12.5646 9.06248C13.4648 10.4838 14.8861 11.4787 16.5917 11.8104Z" fill="#3CC754"/>
<path d="M31.3736 29.956C31.4683 28.9611 31.0893 27.9188 30.2839 26.9712C29.1942 25.6446 27.536 24.7445 25.783 24.555H25.7356C25.3093 23.3231 24.5986 21.9966 23.6037 20.7174L26.162 19.7225L23.272 17.9695L23.0825 14.5109L20.5241 16.7377L19.4818 16.4534C18.0605 15.3637 16.5918 14.5583 15.1705 14.0845C12.849 13.3265 10.9539 13.516 9.8168 14.7004C9.29565 15.2216 8.96401 15.9323 8.82187 16.785C-1.17478 38.3418 -0.132479 39.3841 0.199164 39.7158C0.388674 39.9053 0.720317 40 1.19409 40C4.84216 40 16.118 34.599 23.0825 31.0931C23.9353 30.9983 24.646 30.6193 25.2145 30.0981C26.2094 29.1032 26.4937 27.5871 26.1147 25.7868C27.3465 26.0237 28.5309 26.7343 29.289 27.6819C29.8101 28.3452 30.0944 29.0558 30.0944 29.6717C29.289 29.577 28.4835 29.7191 27.8203 30.2403C27.536 30.4771 27.2991 30.8088 27.2991 31.1878C27.2991 31.4721 27.3465 31.7563 27.536 31.9459C27.6781 32.088 27.8676 32.2301 28.1045 32.2775C28.7204 32.467 29.3837 32.3722 29.9996 32.0406C30.3786 31.8037 30.7103 31.4721 30.9472 31.0931C31.0893 31.1404 31.2314 31.1878 31.3736 31.2352C33.5056 31.8985 35.4954 32.7513 37.3905 33.8883L38.0064 32.7986C36.0166 31.6616 33.8846 30.714 31.7052 30.0508C31.6578 30.0034 31.5157 29.956 31.3736 29.956ZM19.5766 18.1116L19.4344 17.7326L20.382 17.9695L20.9031 18.1116L21.1874 17.8747L22.0402 17.1167L22.135 18.6328L23.4142 19.3908L22.8456 19.6277L22.2297 19.8646L21.9928 19.9593L21.8981 20.4331L21.6612 21.428L20.7136 20.291L19.1976 20.4331L20.003 19.1539L19.5766 18.1116ZM24.3617 29.2453C23.5563 30.0508 22.0876 30.1455 20.2872 29.577C18.2974 28.9137 16.2128 27.5397 14.3177 25.6446C12.4699 23.7495 11.0486 21.6649 10.3853 19.6751C10.1011 18.7275 9.95893 17.8747 10.0537 17.1641C10.1011 16.5008 10.338 15.9796 10.717 15.6006C11.1907 15.1268 11.854 14.8899 12.7068 14.8899C13.3227 14.8899 14.0334 15.0321 14.7914 15.269C15.6916 15.5532 16.6392 16.027 17.5867 16.6429L18.5816 19.0118L16.7813 21.8544L20.1451 21.5702L22.2771 24.1759L22.8456 21.7123C23.5089 22.6599 24.0301 23.6074 24.4091 24.5076C23.1299 24.6497 21.9454 25.1235 20.9979 25.9289L21.8033 26.8765C22.6087 26.1658 23.6984 25.7868 24.8355 25.7394C24.9776 26.3079 25.0724 26.8291 25.0724 27.3029C25.025 28.0609 24.8355 28.7716 24.3617 29.2453ZM29.4311 30.9983C29.1942 31.0931 29.0047 31.1878 28.7678 31.1878C28.9573 31.0457 29.1942 30.9983 29.4785 30.9509C29.4785 30.9509 29.4311 30.9509 29.4311 30.9983Z" fill="black"/>
<path d="M9.39042 12.142C9.91157 12.142 10.338 11.7157 10.338 11.1945C10.338 10.6733 9.91157 10.2469 9.39042 10.2469C8.86927 10.2469 8.44287 10.6733 8.44287 11.1945C8.44287 11.7157 8.86927 12.142 9.39042 12.142Z" fill="#3CC754"/>
</svg>
