<svg width="20" height="18" viewBox="0 0 20 18" fill="none" xmlns="http://www.w3.org/2000/svg">
<path d="M8.33333 4.83504V1.29171C8.33333 1.04088 8.1825 0.814209 7.95167 0.715876C7.72167 0.618376 7.4525 0.667543 7.27333 0.843376L0.19 7.71838C0.0683333 7.83588 0 7.99754 0 8.16671C0 8.33588 0.0683333 8.49754 0.19 8.61504L7.27333 15.49C7.45417 15.665 7.7225 15.7142 7.95167 15.6175C8.1825 15.5192 8.33333 15.2925 8.33333 15.0417V11.5H9.515C13.3783 11.5 16.94 13.6 18.8092 16.9767L18.8267 17.0084C18.9383 17.2117 19.15 17.3334 19.375 17.3334C19.4267 17.3334 19.4783 17.3275 19.53 17.3142C19.8067 17.2434 20 16.9942 20 16.7084C20 10.23 14.7858 4.94671 8.33333 4.83504Z" fill="#70757A"/>
</svg>
