<svg width="20" height="20" viewBox="0 0 20 20" fill="none" xmlns="http://www.w3.org/2000/svg">
<g clip-path="url(#clip0_27_198)">
<path d="M2.08332 8.75C0.935 8.75 0 9.685 0 10.8333V17.5C0 18.6483 0.935 19.5833 2.08332 19.5833H4.58332C5.0525 19.5833 5.48414 19.425 5.83332 19.1616V8.75H2.08332Z" fill="#70757A"/>
<path d="M20.0001 11.8748C20.0001 11.374 19.8017 10.9073 19.4576 10.5631C19.8467 10.1373 20.0451 9.56646 19.9909 8.97232C19.8934 7.91314 18.9392 7.08314 17.8176 7.08314H12.6701C12.9251 6.30896 13.3334 4.88982 13.3334 3.74982C13.3334 1.94232 11.7976 0.416504 10.8334 0.416504C9.96757 0.416504 9.34921 0.904004 9.32257 0.924004C9.22425 1.00318 9.16675 1.12318 9.16675 1.24982V4.07564L6.76675 9.27482L6.66675 9.32564V18.2573C7.34507 18.5773 8.20339 18.7498 8.75007 18.7498H16.3992C17.3067 18.7498 18.1009 18.1381 18.2876 17.294C18.3834 16.8598 18.3276 16.4223 18.1367 16.0423C18.7526 15.7323 19.1667 15.0981 19.1667 14.3748C19.1667 14.0798 19.0992 13.7973 18.9709 13.5415C19.5867 13.2315 20.0001 12.5973 20.0001 11.8748Z" fill="#70757A"/>
</g>
<defs>
<clipPath id="clip0_27_198">
<rect width="20" height="20" fill="white"/>
</clipPath>
</defs>
</svg>
