<svg width="44" height="41" viewBox="0 0 44 41" fill="none" xmlns="http://www.w3.org/2000/svg">
<path fill-rule="evenodd" clip-rule="evenodd" d="M0 21.576H3.62054C3.60874 28.6699 3.62054 33.8698 3.62054 40.5H0V21.576Z" fill="black"/>
<path fill-rule="evenodd" clip-rule="evenodd" d="M13.929 21.609C15.2966 21.5412 16.258 22.1125 17.5328 22.8493C18.9897 23.6914 20.7807 24.7421 23.4497 24.7769C24.238 24.7866 24.881 24.8539 25.3899 24.952C27.6839 25.2657 26.6013 27.1807 24.9918 27.2241C24.143 27.2241 21.7861 27.1002 19.6448 27.375C18.5741 27.5123 17.5406 27.7365 16.6948 28.1963C15.8489 28.656 15.1498 29.5255 15.2197 30.5932C15.246 31.0145 15.6534 31.3738 16.0746 31.3475C16.4959 31.3212 16.8552 30.9139 16.8289 30.4926C16.802 30.0853 16.9331 29.8938 17.4657 29.6043C17.9984 29.3148 18.8784 29.0915 19.846 28.9674C21.7612 28.7216 23.9679 28.8313 24.9583 28.8333C27.8384 28.8333 30.6471 28.8333 33.1715 28.8333C34.7357 28.8333 36.1469 27.7182 37.5464 26.4698C38.9453 25.2219 40.2715 23.7428 41.2172 22.7655C41.8647 22.0987 42.7136 22.1501 43.128 22.4303C43.3351 22.5703 43.4351 22.7193 43.4465 22.9499C43.4577 23.1805 43.368 23.5639 42.9101 24.0897C38.3749 29.3019 35.1743 33.2074 32.3502 35.4207C31.0054 36.4728 29.7798 36.8542 28.0425 37.013C26.3051 37.1717 24.0806 37.0736 21.0192 37.1303C15.1519 37.2323 10.4162 37.0151 5.22974 36.4933V23.6203C7.24695 23.6504 8.25942 23.377 9.13521 23.0002C10.1256 22.5741 10.8737 22.1086 13.3088 21.6928C13.5225 21.6563 13.7337 21.6186 13.929 21.609Z" fill="black"/>
<path fill-rule="evenodd" clip-rule="evenodd" d="M18.7216 0.000804612C18.3003 0.0183452 17.9329 0.417674 17.9505 0.838942C17.9682 1.26022 18.3673 1.62758 18.7886 1.61003H21.6048V3.65508C15.2057 3.99007 9.8817 8.2968 8.37895 14.0647H5.73044C5.1759 14.0664 4.76078 14.7682 5.0264 15.2549L6.85354 18.641C6.99349 18.8974 7.28221 19.0653 7.57434 19.06H37.2612C37.5477 19.0595 37.8279 18.8924 37.9652 18.641L39.7923 15.2549C40.058 14.7682 39.6428 14.0664 39.0883 14.0647H36.4398C34.937 8.2968 29.6174 3.99007 23.214 3.65508V1.61003H26.0301C26.4552 1.61604 26.8515 1.23052 26.8515 0.805417C26.8515 0.380313 26.4552 -0.00520852 26.0301 0.000804612H18.7886C18.7661 -0.000268204 18.7441 -0.000268204 18.7216 0.000804612ZM7.07146 15.674H37.7473L36.775 17.4508H8.0437L7.07146 15.674Z" fill="#3CC754"/>
</svg>
